<?xml version="1.0"?>
<svg xmlns="http://www.w3.org/2000/svg" viewBox="0 0 24 24" width="24px" height="24px">
    <path d="M 4.9902344 8 C 4.4962344 8.02 3.8870625 8.2871563 3.5390625 8.6601562 C 3.2190625 8.9831562 2.9475781 9.5050938 3.0175781 9.9960938 C 3.5755781 10.037094 4.1324688 9.7497187 4.4804688 9.3867188 C 4.8224687 9.0127187 5.0482344 8.512 4.9902344 8 z M 8 8 L 8 16 L 9 16 L 9 13 L 10.5 13 C 11.678487 13 12.53425 12.103696 12.792969 11 L 13 11 L 13 10.5 C 13 9.1272727 11.872727 8 10.5 8 L 8 8 z M 9 9 L 10.5 9 C 11.327273 9 12 9.6727273 12 10.5 C 12 11.327273 11.327273 12 10.5 12 L 9 12 L 9 9 z M 4.7402344 10 C 4.0802344 10 3.6087812 10.359375 3.3007812 10.359375 C 2.9877812 10.359375 2.5204687 10.003906 1.9804688 10.003906 C 1.3204688 10.003906 0.67303125 10.417484 0.33203125 11.021484 C -0.36796875 12.228484 0.151125 14.016 0.828125 15 C 1.160125 15.486 1.5596094 16 2.0996094 16 C 2.5946094 15.982 2.761375 15.699219 3.359375 15.699219 C 3.961375 15.699219 4.1396875 16 4.6796875 16 C 5.2196875 16 5.5479063 15.504578 5.8789062 15.017578 C 6.2569063 14.465578 6.4099219 13.928391 6.4199219 13.900391 C 6.4109219 13.891391 5.3742344 13.492922 5.3652344 12.294922 C 5.3562344 11.292922 6.18175 10.816063 6.21875 10.789062 C 5.75275 10.096063 4.9807812 10 4.8007812 10 L 4.7402344 10 z M 15.625 10 C 14.654762 10 14.044326 10.295602 13.716797 10.669922 C 13.389267 11.044241 13.375 11.5 13.375 11.5 L 14.375 11.5 C 14.375 11.5 14.360733 11.45576 14.470703 11.330078 C 14.580677 11.204398 14.845238 11 15.625 11 C 16.569853 11 16.803743 11.273796 16.919922 11.488281 C 17.036101 11.702766 17.005859 11.917969 17.005859 11.917969 L 17 11.958984 L 17 12 L 15.375 12 C 13.923 12.101 13.001953 12.825766 13.001953 14.009766 C 13.001953 15.205766 13.813609 16 14.974609 16 C 15.920712 16 16.564085 15.508723 17 14.894531 L 17 16 L 18 16 L 18 12 L 17.994141 12.082031 C 17.994141 12.082031 18.088901 11.547234 17.798828 11.011719 C 17.508798 10.476205 16.805147 10 15.625 10 z M 19.005859 10 L 20.970703 15.691406 L 20.634766 16.664062 C 20.565766 16.864063 20.374109 17 20.162109 17 L 19 17 L 19 18 L 20.162109 18 C 20.801109 18 21.372078 17.593281 21.580078 16.988281 L 23.994141 10 L 22.9375 10 L 21.5 14.158203 L 20.0625 10 L 19.005859 10 z M 15.412109 13 L 16.759766 13 C 16.560766 13.771 16.072609 15 14.974609 15 C 14.355609 15 14.001953 14.638766 14.001953 14.009766 C 14.001953 13.267766 14.760109 13.05 15.412109 13 z"/>
</svg>
